# xmcd
#
# Track frame offsets:
#  150
#  17397
#  37492
#
# Disc length: 722 seconds
#
# Revision: 0
# Processed by: cddbd v1.5.2PL0 Copyright (c) Steve Scherf et al.
# Submitted via: Collectorz.com_Music_Collector 6.11
#
DISCID=1e02d003
DTITLE=ELO Part II - Breakin' Down The Walls (single)
DYEAR=1994
DGENRE=CD Singles - Classic Rock
TTITLE0=Breakin' Down The Walls (Radio Edit)
TTITLE1=Breakin' Down The Walls (Albm Version)
TTITLE2=Don't Wanna
EXTD=
EXTT0=
EXTT1=
EXTT2=
PLAYORDER=
